# xmcd
#
# Track frame offsets: 
#        150
#        28725
#        46150
#
# Disc length: 929 seconds
#
# Revision: 0
# Processed by: cddbd v1.5.1PL0 Copyright (c) Steve Scherf et al.
# Submitted via: ExactAudioCopy v0.95a5
#
DISCID=1c039f03
DTITLE=Staccato Set - Lovin the Chorus
DYEAR=2004
DGENRE=Blues
TTITLE0=Staccato Set Are In Love With The Chorus
TTITLE1=Come What May
TTITLE2=Teun
EXTD=
EXTT0=
EXTT1=
EXTT2=
PLAYORDER=
